<svg width="42" height="36" viewBox="0 0 42 36" fill="none" xmlns="http://www.w3.org/2000/svg">
<path fill-rule="evenodd" clip-rule="evenodd" d="M6.42107 1.55475C4.53123 3.11175 4.03211 5.74425 3.03613 11.0115L1.33459 20.0115C-0.0652133 27.4185 -0.763981 31.122 1.2756 33.561C3.31746 36 7.1153 36 14.7155 36H27.2843C34.8845 36 38.6824 36 40.7242 33.561C42.7661 31.122 42.0628 27.4185 40.6652 20.0115L38.9637 11.0115C37.9654 5.7465 37.4686 3.11175 35.5787 1.55475C33.6889 0 30.9868 0 25.5827 0H16.4171C11.013 0 8.31092 0 6.42107 1.55475ZM16.1857 8.43975C16.5375 9.42758 17.1895 10.2829 18.0519 10.8879C18.9143 11.4929 19.9447 11.8178 21.001 11.8178C22.0574 11.8178 23.0878 11.4929 23.9502 10.8879C24.8126 10.2829 25.4646 9.42758 25.8164 8.43975C25.9751 8.02912 26.2891 7.69613 26.6916 7.51169C27.0942 7.32726 27.5534 7.30594 27.9715 7.45228C28.3897 7.59863 28.7337 7.90107 28.9303 8.29521C29.127 8.68935 29.1607 9.14405 29.0244 9.5625C28.4378 11.208 27.3513 12.6327 25.9144 13.6404C24.4775 14.6481 22.7609 15.1891 21.001 15.1891C19.2412 15.1891 17.5246 14.6481 16.0877 13.6404C14.6508 12.6327 13.5643 11.208 12.9777 9.5625C12.8989 9.35263 12.8631 9.12931 12.8722 8.90557C12.8814 8.68182 12.9353 8.46211 13.031 8.25925C13.1266 8.05639 13.262 7.87444 13.4292 7.724C13.5965 7.57355 13.7923 7.45762 14.0051 7.38297C14.218 7.30831 14.4437 7.27643 14.6692 7.28916C14.8946 7.3019 15.1152 7.35901 15.3182 7.45716C15.5211 7.55531 15.7024 7.69254 15.8513 7.86085C16.0002 8.02916 16.1139 8.22743 16.1857 8.43975Z" fill="#9A162D"/>
</svg>
