<svg width="71" height="74" viewBox="0 0 71 74" fill="none" xmlns="http://www.w3.org/2000/svg">
<mask id="mask0_202_717" style="mask-type:luminance" maskUnits="userSpaceOnUse" x="0" y="0" width="71" height="74">
<path d="M71 0H0V73.357H71V0Z" fill="white"/>
</mask>
<g mask="url(#mask0_202_717)">
<path d="M71 0V73.357H0V0H71Z" fill="black" fill-opacity="0.01"/>
<path fill-rule="evenodd" clip-rule="evenodd" d="M36.6094 64.1875H34.3906C22.365 64.1875 16.33 64.1875 12.6025 60.3362C8.875 56.485 8.875 50.2496 8.875 37.8707V35.5324C8.875 23.1076 8.875 16.8722 12.5803 13.021C16.3078 9.16974 22.3206 9.16974 34.3906 9.16974H36.6094C48.6572 9.16974 54.6922 9.16974 58.4197 13.021C62.125 16.8722 62.125 23.1076 62.125 35.4866V37.8248C62.125 50.2496 62.125 56.485 58.4197 60.3362C54.6922 64.1875 48.6794 64.1875 36.6094 64.1875ZM18.3841 26.8523C18.6621 40.3529 25.3332 48.4665 37.0289 48.4665H37.6918V40.7426C39.755 41.0054 41.6953 41.8784 43.2701 43.2526C44.8448 44.6265 45.9834 46.4403 46.5438 48.4665H52.6163C51.9921 46.1337 50.886 43.9614 49.3713 42.093C47.8564 40.2245 45.9672 38.7023 43.8283 37.627C45.7444 36.45 47.4002 34.8856 48.6915 33.0315C49.9828 31.1777 50.8821 29.0741 51.3333 26.8523H45.8169C44.6197 31.1362 41.0702 35.0305 37.6918 35.3985V26.8523H32.1754V41.8243C28.7543 40.9587 24.4352 36.7614 24.2427 26.8523H18.3841Z" fill="#8A7A6A"/>
</g>
</svg>
